0
SECTION
2
HEADER
9
$INSUNITS
70
4
9
$ACADVER
1
AC1014
9
$HANDSEED
5
FFFF
0
ENDSEC
0
SECTION
2
TABLES
0
TABLE
2
VPORT
5
8
100
AcDbSymbolTable
0
ENDTAB
0
TABLE
2
LTYPE
5
5
100
AcDbSymbolTable
0
LTYPE
5
14
100
AcDbSymbolTableRecord
100
AcDbLinetypeTableRecord
2
BYBLOCK
70
0
0
LTYPE
5
15
100
AcDbSymbolTableRecord
100
AcDbLinetypeTableRecord
2
BYLAYER
70
0
0
ENDTAB
0
TABLE
2
LAYER
5
2
100
AcDbSymbolTable
70
2
0
LAYER
5
50
100
AcDbSymbolTableRecord
100
AcDbLayerTableRecord
2
0
70
0
6
CONTINUOUS
0
ENDTAB
0
TABLE
2
STYLE
5
3
100
AcDbSymbolTable
70
1
0
STYLE
5
11
100
AcDbSymbolTableRecord
100
AcDbTextStyleTableRecord
2
STANDARD
70
0
0
ENDTAB
0
TABLE
2
VIEW
5
6
100
AcDbSymbolTable
70
0
0
ENDTAB
0
TABLE
2
UCS
5
7
100
AcDbSymbolTable
70
0
0
ENDTAB
0
TABLE
2
APPID
5
9
100
AcDbSymbolTable
70
2
0
APPID
5
12
100
AcDbSymbolTableRecord
100
AcDbRegAppTableRecord
2
ACAD
70
0
0
ENDTAB
0
TABLE
2
DIMSTYLE
5
A
100
AcDbSymbolTable
70
1
0
ENDTAB
0
TABLE
2
BLOCK_RECORD
5
1
100
AcDbSymbolTable
70
1
0
BLOCK_RECORD
5
1F
100
AcDbSymbolTableRecord
100
AcDbBlockTableRecord
2
*MODEL_SPACE
0
BLOCK_RECORD
5
1B
100
AcDbSymbolTableRecord
100
AcDbBlockTableRecord
2
*PAPER_SPACE
0
ENDTAB
0
ENDSEC
0
SECTION
2
BLOCKS
0
BLOCK
5
20
100
AcDbEntity
100
AcDbBlockBegin
2
*MODEL_SPACE
0
ENDBLK
5
21
100
AcDbEntity
100
AcDbBlockEnd
0
BLOCK
5
1C
100
AcDbEntity
100
AcDbBlockBegin
2
*PAPER_SPACE
0
ENDBLK
5
1D
100
AcDbEntity
100
AcDbBlockEnd
0
ENDSEC
0
SECTION
2
ENTITIES
0
LWPOLYLINE
5
100
100
AcDbEntity
8
0
100
AcDbPolyline
90
8
70
1
43
0.0
10
28.000000327825546
20
-212.5
10
16.000000327825546
20
-212.5
42
0.41421356237309503
10
14.500000327825546
20
-214
10
14.500000327825546
20
-226
42
0.41421356237309503
10
16.000000327825546
20
-227.5
10
28.000000327825543
20
-227.5
42
0.41421356237309503
10
29.500000327825546
20
-226
10
29.500000327825546
20
-214
42
0.41421356237309503
0
CIRCLE
5
101
100
AcDbEntity
8
0
100
AcDbCircle
10
-35.000000506639537
20
-209.4999998062849
30
0
40
1.0000000000000009
0
CIRCLE
5
102
100
AcDbEntity
8
0
100
AcDbCircle
10
35.000000506639481
20
-209.4999998062849
30
0
40
1.0000000000000009
0
CIRCLE
5
103
100
AcDbEntity
8
0
100
AcDbCircle
10
-35.000000506639616
20
-230.5000001937151
30
0
40
1.0000000000000009
0
CIRCLE
5
104
100
AcDbEntity
8
0
100
AcDbCircle
10
35.000000506639481
20
-230.5000001937151
30
0
40
1.0000000000000009
0
CIRCLE
5
105
100
AcDbEntity
8
0
100
AcDbCircle
10
10.049999999999999
20
-230.04999999999998
30
0
40
0.94999999999999973
0
CIRCLE
5
106
100
AcDbEntity
8
0
100
AcDbCircle
10
-10.049999999999999
20
-230.04999999999998
30
0
40
0.94999999999999973
0
CIRCLE
5
107
100
AcDbEntity
8
0
100
AcDbCircle
10
10.049999999999999
20
-209.95000000000002
30
0
40
0.94999999999999973
0
CIRCLE
5
108
100
AcDbEntity
8
0
100
AcDbCircle
10
-10.049999999999999
20
-209.95000000000002
30
0
40
1.0000000000000009
0
LWPOLYLINE
5
109
100
AcDbEntity
8
0
100
AcDbPolyline
90
16
70
1
43
0.0
10
37.999999999999986
20
-178.5
10
40.208712152522068
20
-178.5
42
0.18914919623216914
10
41.5
20
-179.79128784747792
10
41.5
20
-182.00000000000003
42
0.99999999999999989
10
43.5
20
-182.00000000000003
10
43.499999999999986
20
-179.79128784747792
42
0.18914919623216356
10
44.791287847477918
20
-178.5
10
47
20
-178.5
42
0.99999999999999989
10
47.000000000000014
20
-176.5
10
44.791287847477925
20
-176.50000000000003
42
0.18914919623217394
10
43.5
20
-175.20871215252208
10
43.5
20
-173
42
0.99999999999999989
10
41.5
20
-173.00000000000006
10
41.500000000000014
20
-175.20871215252208
42
0.1891491962321783
10
40.208712152522054
20
-176.5
10
37.999999999999993
20
-176.5
42
0.99999999999999989
0
LWPOLYLINE
5
110
100
AcDbEntity
8
0
100
AcDbPolyline
90
16
70
1
43
0.0
10
41.500000000000021
20
-258
10
41.500000000000021
20
-260.20871215252208
42
0.18914919623217097
10
40.208712152522082
20
-261.5
10
38.000000000000007
20
-261.5
42
0.99999999999999989
10
38.000000000000007
20
-263.5
10
40.208712152522097
20
-263.5
42
0.18914919623217016
10
41.500000000000021
20
-264.79128784747792
10
41.500000000000021
20
-267
42
0.99999999999999989
10
43.500000000000014
20
-267
10
43.500000000000007
20
-264.79128784747792
42
0.18914919623217044
10
44.791287847477918
20
-263.5
10
47.000000000000014
20
-263.5
42
0.99999999999999989
10
47.000000000000014
20
-261.5
10
44.791287847477932
20
-261.5
42
0.18914919623217069
10
43.500000000000014
20
-260.20871215252208
10
43.500000000000014
20
-258
42
0.99999999999999989
0
LWPOLYLINE
5
111
100
AcDbEntity
8
0
100
AcDbPolyline
90
16
70
1
43
0.0
10
-41.499999999999993
20
-182.00000000000003
10
-41.499999999999993
20
-179.79128784747792
42
0.18914919623217116
10
-40.208712152522068
20
-178.5
10
-37.999999999999979
20
-178.5
42
0.99999999999999989
10
-37.999999999999979
20
-176.5
10
-40.208712152522068
20
-176.50000000000003
42
0.18914919623217447
10
-41.499999999999993
20
-175.20871215252208
10
-41.499999999999993
20
-173
42
0.99999999999999989
10
-43.499999999999986
20
-172.99999999999997
10
-43.499999999999979
20
-175.20871215252208
42
0.18914919623216914
10
-44.791287847477918
20
-176.5
10
-46.999999999999986
20
-176.5
42
0.99999999999999989
10
-46.999999999999986
20
-178.5
10
-44.791287847477918
20
-178.49999999999997
42
0.18914919623217158
10
-43.499999999999986
20
-179.79128784747792
10
-43.499999999999986
20
-182
42
0.99999999999999989
0
LWPOLYLINE
5
112
100
AcDbEntity
8
0
100
AcDbPolyline
90
16
70
1
43
0.0
10
-46.999999999999993
20
-263.5
10
-44.791287847477918
20
-263.5
42
0.18914919623216972
10
-43.499999999999986
20
-264.79128784747792
10
-43.499999999999986
20
-267
42
0.99999999999999989
10
-41.499999999999993
20
-267
10
-41.5
20
-264.79128784747792
42
0.18914919623216672
10
-40.208712152522068
20
-263.5
10
-37.999999999999986
20
-263.5
42
0.99999999999999989
10
-37.999999999999986
20
-261.5
10
-40.208712152522068
20
-261.5
42
0.18914919623217305
10
-41.499999999999993
20
-260.20871215252208
10
-41.499999999999993
20
-258
42
0.99999999999999989
10
-43.499999999999986
20
-258
10
-43.499999999999979
20
-260.20871215252208
42
0.18914919623217438
10
-44.791287847477918
20
-261.5
10
-46.999999999999993
20
-261.5
42
0.99999999999999989
0
LWPOLYLINE
5
113
100
AcDbEntity
8
0
100
AcDbPolyline
90
18
70
1
43
0.0
10
-23.325264325854597
20
-229.75
42
-0.14259595653615673
10
-21.178318821189887
20
-230.375
42
0.14259595653612939
10
-19.031373316525176
20
-231
10
-18.994209133804979
20
-230.99999999999997
42
0.33497555523839417
10
-15.147658039923662
20
-228.09728969837525
42
-0.096666729496277651
10
-14.452831911560368
20
-226.7315264655835
42
0.16737579799371277
10
-14.028694394319388
20
-225.5
10
-14.028694394319389
20
-214.5
42
0.16737579799371344
10
-14.452831911560384
20
-213.2684735344165
42
-0.09666672949628001
10
-15.147658039923666
20
-211.90271030162475
42
0.33497555523839417
10
-18.994209133804979
20
-209
10
-19.031373316525169
20
-209.00000000000003
42
0.14259595653612914
10
-21.17831882118988
20
-209.625
42
-0.1425959565361557
10
-23.32526432585459
20
-210.25
10
-30.971306261331701
20
-210.25000000000003
42
0.41421356237309503
10
-32.971306261331705
20
-212.25
10
-32.971306261331705
20
-227.75
42
0.41421356237309503
10
-30.971306261331701
20
-229.75
0
ARC
5
114
100
AcDbEntity
8
0
100
AcDbCircle
10
-35.000000000000021
20
-231.50000000000009
30
0
40
2.4999999999999778
100
AcDbArc
50
180
51
270.00000000000051
0
LINE
5
115
100
AcDbEntity
8
0
100
AcDbLine
10
-35
20
-234.0000001937151
30
0
11
-31.485281418942108
21
-234.0000001937151
31
0
0
ARC
5
116
100
AcDbEntity
8
0
100
AcDbCircle
10
-31.485281418942108
20
-240.00000000000006
30
0
40
5.9999999999999973
100
AcDbArc
50
-45
51
90.000000000000043
0
LINE
5
117
100
AcDbEntity
8
0
100
AcDbLine
10
-27.242640731822817
20
-244.24264068711935
30
0
11
-36.464466127094028
21
-253.46446608239057
31
0
0
ARC
5
118
100
AcDbEntity
8
0
100
AcDbCircle
10
-40.000000033026751
20
-249.92893217645781
30
0
40
4.9999999999999929
100
AcDbArc
50
250.52877963311985
51
314.99999999999966
0
ARC
5
119
100
AcDbEntity
8
0
100
AcDbCircle
10
-42.499999999999993
20
-257
30
0
40
2.5000000000000422
100
AcDbArc
50
70.528779633120436
51
166.23470166956588
0
ARC
5
120
100
AcDbEntity
8
0
100
AcDbCircle
10
-49.784589286804248
20
-255.21541071319575
30
0
40
5.0000000000000133
100
AcDbArc
50
283.76529833043458
51
346.23470166956525
0
ARC
5
121
100
AcDbEntity
8
0
100
AcDbCircle
10
-47.999999999999986
20
-262.5
30
0
40
2.4999999999999707
100
AcDbArc
50
103.76529833043482
51
256.23470166956554
0
ARC
5
122
100
AcDbEntity
8
0
100
AcDbCircle
10
-49.784589286804248
20
-269.78458928680425
30
0
40
5.0000000000000071
100
AcDbArc
50
13.765298330434701
51
76.234701669565268
0
ARC
5
123
100
AcDbEntity
8
0
100
AcDbCircle
10
-42.499999999999993
20
-268
30
0
40
2.4999999999999902
100
AcDbArc
50
193.76529833043415
51
346.23470166956588
0
ARC
5
124
100
AcDbEntity
8
0
100
AcDbCircle
10
-35.21541071319573
20
-269.78458928680425
30
0
40
5.0000000000000124
100
AcDbArc
50
103.7652983304345
51
166.23470166956528
0
ARC
5
125
100
AcDbEntity
8
0
100
AcDbCircle
10
-36.999999999999993
20
-262.5
30
0
40
2.4999999999999729
100
AcDbArc
50
-76.234701669565055
51
19.471220366879457
0
ARC
5
126
100
AcDbEntity
8
0
100
AcDbCircle
10
-29.928932176457796
20
-260.00000003302671
30
0
40
4.9999999999999964
100
AcDbArc
50
135.00000000000028
51
199.47122036688071
0
LINE
5
127
100
AcDbEntity
8
0
100
AcDbLine
10
-33.464466082390537
20
-256.464466127094
30
0
11
-19.445436482630051
21
-242.44543652733353
31
0
0
ARC
5
128
100
AcDbEntity
8
0
100
AcDbCircle
10
6.6613381477509392e-15
20
-261.89087300996357
30
0
40
27.500000000000007
100
AcDbArc
50
44.999999999999986
51
135.00000000000003
0
LINE
5
129
100
AcDbEntity
8
0
100
AcDbLine
10
19.445436482630061
20
-242.44543652733353
30
0
11
33.464466082390565
21
-256.46446612709406
31
0
0
ARC
5
130
100
AcDbEntity
8
0
100
AcDbCircle
10
29.928932176457824
20
-260.00000003302677
30
0
40
5
100
AcDbArc
50
-19.471220366880036
51
44.999999999999737
0
ARC
5
131
100
AcDbEntity
8
0
100
AcDbCircle
10
37.000000000000028
20
-262.5
30
0
40
2.5000000000000018
100
AcDbArc
50
160.52877963312054
51
256.23470166956474
0
ARC
5
132
100
AcDbEntity
8
0
100
AcDbCircle
10
35.215410713195752
20
-269.78458928680425
30
0
40
4.9999999999999982
100
AcDbArc
50
13.765298330434728
51
76.23470166956551
0
ARC
5
133
100
AcDbEntity
8
0
100
AcDbCircle
10
42.500000000000014
20
-268
30
0
40
2.500000000000008
100
AcDbArc
50
193.76529833043412
51
346.23470166956599
0
ARC
5
134
100
AcDbEntity
8
0
100
AcDbCircle
10
49.784589286804284
20
-269.78458928680425
30
0
40
5.0000000000000133
100
AcDbArc
50
103.76529833043458
51
166.23470166956528
0
ARC
5
135
100
AcDbEntity
8
0
100
AcDbCircle
10
48.000000000000007
20
-262.5
30
0
40
2.4999999999999751
100
AcDbArc
50
-76.234701669564913
51
76.234701669565183
0
ARC
5
136
100
AcDbEntity
8
0
100
AcDbCircle
10
49.784589286804284
20
-255.21541071319572
30
0
40
5.0000000000000071
100
AcDbArc
50
193.76529833043438
51
256.23470166956537
0
ARC
5
137
100
AcDbEntity
8
0
100
AcDbCircle
10
42.500000000000014
20
-257
30
0
40
2.4999999999999991
100
AcDbArc
50
13.765298330435371
51
109.47122036687956
0
ARC
5
138
100
AcDbEntity
8
0
100
AcDbCircle
10
40.000000033026772
20
-249.92893217645781
30
0
40
4.9999999999999991
100
AcDbArc
50
224.99999999999972
51
289.47122036688017
0
LINE
5
139
100
AcDbEntity
8
0
100
AcDbLine
10
36.464466127094028
20
-253.46446608239052
30
0
11
26.242640731822782
21
-243.24264068711929
31
0
0
ARC
5
140
100
AcDbEntity
8
0
100
AcDbCircle
10
30.485281418942066
20
-239
30
0
40
6.0000000000000142
100
AcDbArc
50
90
51
225.00000000000006
0
LINE
5
141
100
AcDbEntity
8
0
100
AcDbLine
10
30.485281418942066
20
-232.99999999999997
30
0
11
35
21
-233
31
0
0
ARC
5
142
100
AcDbEntity
8
0
100
AcDbCircle
10
35.000000000000021
20
-230.50000000000006
30
0
40
2.4999999999999645
100
AcDbArc
50
-90.000000000000512
51
0
0
LINE
5
143
100
AcDbEntity
8
0
100
AcDbLine
10
37.499999999999986
20
-230.5
30
0
11
37.5
21
-209.4999998062849
31
0
0
ARC
5
144
100
AcDbEntity
8
0
100
AcDbCircle
10
35.000000000000021
20
-209.49999980628488
30
0
40
2.4999999999999778
100
AcDbArc
50
0
51
90.000000000000497
0
LINE
5
145
100
AcDbEntity
8
0
100
AcDbLine
10
35
20
-206.9999998062849
30
0
11
30.485281612657165
21
-206.9999998062849
31
0
0
ARC
5
146
100
AcDbEntity
8
0
100
AcDbCircle
10
30.485281612657161
20
-200.9999998062849
30
0
40
6.0000000000000009
100
AcDbArc
50
135.00000000000006
51
270
0
LINE
5
147
100
AcDbEntity
8
0
100
AcDbLine
10
26.242640925537867
20
-196.75735911916561
30
0
11
36.464466127094035
21
-186.53553391760948
31
0
0
ARC
5
148
100
AcDbEntity
8
0
100
AcDbCircle
10
40.000000033026765
20
-190.07106782354219
30
0
40
4.9999999999999929
100
AcDbArc
50
70.528779633119953
51
135.00000000000017
0
ARC
5
149
100
AcDbEntity
8
0
100
AcDbCircle
10
42.5
20
-183
30
0
40
2.5000000000000084
100
AcDbArc
50
250.52877963312045
51
346.23470166956525
0
ARC
5
150
100
AcDbEntity
8
0
100
AcDbCircle
10
49.784589286804263
20
-184.78458928680425
30
0
40
5.0000000000000107
100
AcDbArc
50
103.76529833043442
51
166.2347016695656
0
ARC
5
151
100
AcDbEntity
8
0
100
AcDbCircle
10
48
20
-177.5
30
0
40
2.4999999999999751
100
AcDbArc
50
-76.234701669564913
51
76.234701669565354
0
ARC
5
152
100
AcDbEntity
8
0
100
AcDbCircle
10
49.784589286804263
20
-170.21541071319575
30
0
40
5.0000000000000071
100
AcDbArc
50
193.76529833043469
51
256.23470166956537
0
ARC
5
153
100
AcDbEntity
8
0
100
AcDbCircle
10
42.5
20
-172.00000000000003
30
0
40
2.4999999999999991
100
AcDbArc
50
13.765298330434728
51
166.23470166956528
0
ARC
5
154
100
AcDbEntity
8
0
100
AcDbCircle
10
35.215410713195737
20
-170.21541071319575
30
0
40
5.0000000000000124
100
AcDbArc
50
283.76529833043446
51
346.23470166956525
0
ARC
5
155
100
AcDbEntity
8
0
100
AcDbCircle
10
37
20
-177.5
30
0
40
2.499999999999972
100
AcDbArc
50
103.76529833043497
51
199.47122036688009
0
ARC
5
156
100
AcDbEntity
8
0
100
AcDbCircle
10
29.928932176457799
20
-179.99999996697326
30
0
40
4.9999999999999991
100
AcDbArc
50
-44.99999999999995
51
19.471220366880047
0
LINE
5
157
100
AcDbEntity
8
0
100
AcDbLine
10
33.464466082390544
20
-183.535533872906
30
0
11
19.445436482630058
21
-197.55456347266644
31
0
0
ARC
5
158
100
AcDbEntity
8
0
100
AcDbCircle
10
2.2204460492503131e-15
20
-178.10912699003637
30
0
40
27.500000000000039
100
AcDbArc
50
225.00000000000006
51
314.99999999999994
0
LINE
5
159
100
AcDbEntity
8
0
100
AcDbLine
10
-19.445436482630065
20
-197.55456347266647
30
0
11
-33.464466082390537
21
-183.53553387290594
31
0
0
ARC
5
160
100
AcDbEntity
8
0
100
AcDbCircle
10
-29.928932176457799
20
-179.99999996697323
30
0
40
5
100
AcDbArc
50
160.52877963312028
51
224.99999999999977
0
ARC
5
161
100
AcDbEntity
8
0
100
AcDbCircle
10
-37
20
-177.5
30
0
40
2.4999999999999978
100
AcDbArc
50
-19.471220366880136
51
76.234701669564885
0
ARC
5
162
100
AcDbEntity
8
0
100
AcDbCircle
10
-35.215410713195723
20
-170.21541071319575
30
0
40
5.0000000000000071
100
AcDbArc
50
193.76529833043469
51
256.23470166956542
0
ARC
5
163
100
AcDbEntity
8
0
100
AcDbCircle
10
-42.499999999999993
20
-172
30
0
40
2.4999999999999902
100
AcDbArc
50
13.765298330434113
51
166.23470166956528
0
ARC
5
164
100
AcDbEntity
8
0
100
AcDbCircle
10
-49.784589286804255
20
-170.21541071319575
30
0
40
5.0000000000000133
100
AcDbArc
50
283.76529833043458
51
346.23470166956565
0
ARC
5
165
100
AcDbEntity
8
0
100
AcDbCircle
10
-47.999999999999979
20
-177.5
30
0
40
2.4999999999999751
100
AcDbArc
50
103.76529833043512
51
256.2347016695652
0
ARC
5
166
100
AcDbEntity
8
0
100
AcDbCircle
10
-49.784589286804255
20
-184.78458928680425
30
0
40
5.0000000000000071
100
AcDbArc
50
13.765298330434701
51
76.234701669565268
0
ARC
5
167
100
AcDbEntity
8
0
100
AcDbCircle
10
-42.499999999999993
20
-183
30
0
40
2.4999999999999902
100
AcDbArc
50
193.76529833043412
51
289.47122036687989
0
ARC
5
168
100
AcDbEntity
8
0
100
AcDbCircle
10
-40.000000033026737
20
-190.07106782354219
30
0
40
5.0000000000000018
100
AcDbArc
50
44.999999999999659
51
109.47122036688013
0
LINE
5
169
100
AcDbEntity
8
0
100
AcDbLine
10
-36.464466127093985
20
-186.53553391760948
30
0
11
-27.242640925537877
21
-195.75735911916559
31
0
0
ARC
5
170
100
AcDbEntity
8
0
100
AcDbCircle
10
-31.485281612657154
20
-199.99999980628488
30
0
40
6.0000000000000142
100
AcDbArc
50
-90
51
45.000000000000092
0
LINE
5
171
100
AcDbEntity
8
0
100
AcDbLine
10
-31.485281612657154
20
-205.9999998062849
30
0
11
-35
21
-205.9999998062849
31
0
0
ARC
5
172
100
AcDbEntity
8
0
100
AcDbCircle
10
-35.000000000000021
20
-208.49999980628485
30
0
40
2.4999999999999645
100
AcDbArc
50
89.999999999999517
51
180
0
LINE
5
173
100
AcDbEntity
8
0
100
AcDbLine
10
-37.499999999999986
20
-208.4999998062849
30
0
11
-37.5
21
-231.50000000000006
31
0
0
LWPOLYLINE
5
174
100
AcDbEntity
8
0
100
AcDbPolyline
90
16
70
1
43
0.0
10
-8.0500000000000025
20
-213.47561463023922
10
-8.0500000000000025
20
-226.52438536976078
42
-0.28590046875990099
10
-8.4691176470588196
20
-227.1974506478075
42
1.3973269656555092
10
-7.1974506478074751
20
-228.46911764705885
42
-0.28590046875990555
10
-6.5243853697607683
20
-228.05000000000001
10
6.5243853697607683
20
-228.05000000000001
42
-0.28590046875991038
10
7.1974506478074876
20
-228.46911764705882
42
1.3973269656555087
10
8.4691176470588232
20
-227.1974506478075
42
-0.28590046875990388
10
8.0500000000000025
20
-226.52438536976078
10
8.0500000000000025
20
-213.47561463023922
42
-0.28590046875990099
10
8.4691176470588196
20
-212.8025493521925
42
1.3973269656555092
10
7.1974506478074751
20
-211.53088235294115
42
-0.28590046875990555
10
6.5243853697607683
20
-211.94999999999999
10
-6.5243853697607657
20
-211.94999999999999
42
-0.28590046875991038
10
-7.1974506478074849
20
-211.53088235294118
42
1.3973269656555052
10
-8.4691176470588267
20
-212.8025493521925
42
-0.28590046875990494
0
ENDSEC
0
SECTION
2
OBJECTS
0
DICTIONARY
5
C
100
AcDbDictionary
3
ACAD_GROUP
350
D
3
ACAD_MLINESTYLE
350
17
0
DICTIONARY
5
D
100
AcDbDictionary
0
DICTIONARY
5
1A
330
C
100
AcDbDictionary
0
DICTIONARY
5
17
100
AcDbDictionary
0
ENDSEC
0
EOF
