0
SECTION
2
HEADER
9
$INSUNITS
70
4
9
$ACADVER
1
AC1014
9
$HANDSEED
5
FFFF
0
ENDSEC
0
SECTION
2
TABLES
0
TABLE
2
VPORT
5
8
100
AcDbSymbolTable
0
ENDTAB
0
TABLE
2
LTYPE
5
5
100
AcDbSymbolTable
0
LTYPE
5
14
100
AcDbSymbolTableRecord
100
AcDbLinetypeTableRecord
2
BYBLOCK
70
0
0
LTYPE
5
15
100
AcDbSymbolTableRecord
100
AcDbLinetypeTableRecord
2
BYLAYER
70
0
0
ENDTAB
0
TABLE
2
LAYER
5
2
100
AcDbSymbolTable
70
2
0
LAYER
5
50
100
AcDbSymbolTableRecord
100
AcDbLayerTableRecord
2
0
70
0
6
CONTINUOUS
0
ENDTAB
0
TABLE
2
STYLE
5
3
100
AcDbSymbolTable
70
1
0
STYLE
5
11
100
AcDbSymbolTableRecord
100
AcDbTextStyleTableRecord
2
STANDARD
70
0
0
ENDTAB
0
TABLE
2
VIEW
5
6
100
AcDbSymbolTable
70
0
0
ENDTAB
0
TABLE
2
UCS
5
7
100
AcDbSymbolTable
70
0
0
ENDTAB
0
TABLE
2
APPID
5
9
100
AcDbSymbolTable
70
2
0
APPID
5
12
100
AcDbSymbolTableRecord
100
AcDbRegAppTableRecord
2
ACAD
70
0
0
ENDTAB
0
TABLE
2
DIMSTYLE
5
A
100
AcDbSymbolTable
70
1
0
ENDTAB
0
TABLE
2
BLOCK_RECORD
5
1
100
AcDbSymbolTable
70
1
0
BLOCK_RECORD
5
1F
100
AcDbSymbolTableRecord
100
AcDbBlockTableRecord
2
*MODEL_SPACE
0
BLOCK_RECORD
5
1B
100
AcDbSymbolTableRecord
100
AcDbBlockTableRecord
2
*PAPER_SPACE
0
ENDTAB
0
ENDSEC
0
SECTION
2
BLOCKS
0
BLOCK
5
20
100
AcDbEntity
100
AcDbBlockBegin
2
*MODEL_SPACE
0
ENDBLK
5
21
100
AcDbEntity
100
AcDbBlockEnd
0
BLOCK
5
1C
100
AcDbEntity
100
AcDbBlockBegin
2
*PAPER_SPACE
0
ENDBLK
5
1D
100
AcDbEntity
100
AcDbBlockEnd
0
ENDSEC
0
SECTION
2
ENTITIES
0
LWPOLYLINE
5
100
100
AcDbEntity
8
0
100
AcDbPolyline
90
14
70
1
43
0.0
10
3.2855338718598182
20
-295.28571433893273
42
-0.19626156038425033
10
3.9853880623572415
20
-295.00000007450581
10
10.000000327825544
20
-295.00000007450581
42
0.41421356237308266
10
11.000000342726706
20
-294.00000005960464
10
11.000000342726706
20
-285.99999994039536
42
0.41421356237308266
10
10.000000327825543
20
-284.99999992549419
10
3.985388062357238
20
-284.99999992549425
42
-0.19626156038425077
10
3.2855338718598084
20
-284.71428566106727
42
0.19626156038429476
10
1.5358983956162331
20
-284
10
-1.4999999999999991
20
-284
42
0.41421356237309515
10
-3.9999999999999996
20
-286.5
10
-3.9999999999999991
20
-293.5
42
0.41421356237309503
10
-1.4999999999999996
20
-296
10
1.5358983956162371
20
-296
42
0.19626156038429482
0
LWPOLYLINE
5
101
100
AcDbEntity
8
0
100
AcDbPolyline
90
4
70
1
43
0.0
10
24.5
20
-299.00000014901161
10
-8.6378310522592621
20
-299.00000014901161
42
0.99999999999999989
10
-8.6378310522592638
20
-301.00000014901156
10
24.5
20
-301.00000014901161
42
0.99999999999999989
0
LWPOLYLINE
5
102
100
AcDbEntity
8
0
100
AcDbPolyline
90
4
70
1
43
0.0
10
-8.6378310522592372
20
-280.99999985098839
10
24.5
20
-280.99999985098839
42
0.99999999999999989
10
24.5
20
-278.99999985098839
10
-8.637831052259239
20
-278.99999985098839
42
0.99999999999999989
0
LWPOLYLINE
5
103
100
AcDbEntity
8
0
100
AcDbPolyline
90
4
70
1
43
0.0
10
20.000000342726707
20
-294.00000005960464
10
20.000000342726707
20
-285.99999994039536
42
0.99999999999999989
10
18.000000312924385
20
-285.99999994039536
10
18.000000312924385
20
-294.00000005960464
42
0.99999999999999989
0
LWPOLYLINE
5
104
100
AcDbEntity
8
0
100
AcDbPolyline
90
4
70
1
43
0.0
10
17.000000342726707
20
-294.00000005960464
10
17.000000342726707
20
-285.99999994039536
42
0.99999999999999989
10
15.000000312924385
20
-285.99999994039536
10
15.000000312924385
20
-294.00000005960464
42
0.99999999999999989
0
LWPOLYLINE
5
105
100
AcDbEntity
8
0
100
AcDbPolyline
90
4
70
1
43
0.0
10
21.000000312924385
20
-285.99999994039536
10
21.000000312924385
20
-294.00000005960464
42
0.99999999999999989
10
23.000000342726707
20
-294.00000005960464
10
23.000000342726707
20
-285.99999994039536
42
0.99999999999999989
0
CIRCLE
5
106
100
AcDbEntity
8
0
100
AcDbCircle
10
-35.000000506639616
20
-300.5000001937151
30
0
40
1.0000000000000009
0
CIRCLE
5
107
100
AcDbEntity
8
0
100
AcDbCircle
10
35.000000506639481
20
-279.4999998062849
30
0
40
1.0000000000000009
0
CIRCLE
5
108
100
AcDbEntity
8
0
100
AcDbCircle
10
-35.000000506639537
20
-279.4999998062849
30
0
40
1.0000000000000009
0
CIRCLE
5
109
100
AcDbEntity
8
0
100
AcDbCircle
10
35.000000506639481
20
-300.5000001937151
30
0
40
1.0000000000000009
0
CIRCLE
5
110
100
AcDbEntity
8
0
100
AcDbCircle
10
39.000000521540642
20
-290
30
0
40
1.9999999999999973
0
LWPOLYLINE
5
111
100
AcDbEntity
8
0
100
AcDbPolyline
90
24
70
1
43
0.0
10
40.517638656449151
20
-286.60280227867634
42
-0.33945425886337161
10
42.000000566244118
20
-288.53465393125441
10
42.000000566244154
20
-291.46534606874559
42
-0.33945425886337172
10
40.517638656449165
20
-293.39719772132366
10
39.352952387243697
20
-293.70927446659294
42
0.33945425886337538
10
37.5
20
-296.12408903231562
10
37.499999999999986
20
-300.5
42
-0.41421356237310181
10
35
20
-303
10
-35
20
-303
42
-0.41421356237310181
10
-37.5
20
-300.5
10
-37.5
20
-299.13324984803648
10
-35.125398065801228
20
-297.4150846477861
42
0.037673279634547592
10
-34.000000506639481
20
-297.5
10
-26.000000387430191
20
-297.5
42
0.99999999999999989
10
-26.000000387430191
20
-282.5
10
-34.000000506639488
20
-282.5
42
0.037673279634505175
10
-35.125398065801235
20
-282.5849153522139
10
-37.5
20
-280.86675015196352
10
-37.499999999999986
20
-279.4999998062849
42
-0.41421356237310181
10
-35
20
-276.9999998062849
10
35
20
-276.9999998062849
42
-0.41421356237310181
10
37.5
20
-279.4999998062849
10
37.5
20
-283.87591096768443
42
0.33945425886337538
10
39.352952387243697
20
-286.29072553340711
0
ENDSEC
0
SECTION
2
OBJECTS
0
DICTIONARY
5
C
100
AcDbDictionary
3
ACAD_GROUP
350
D
3
ACAD_MLINESTYLE
350
17
0
DICTIONARY
5
D
100
AcDbDictionary
0
DICTIONARY
5
1A
330
C
100
AcDbDictionary
0
DICTIONARY
5
17
100
AcDbDictionary
0
ENDSEC
0
EOF
